<?xml version="1.0" encoding="UTF-8" standalone="no" ?>
<!DOCTYPE svg PUBLIC "-//W3C//DTD SVG 1.1//EN" "http://www.w3.org/Graphics/SVG/1.1/DTD/svg11.dtd">
<svg xmlns="http://www.w3.org/2000/svg" xmlns:xlink="http://www.w3.org/1999/xlink" version="1.1" width="1080" height="1080" viewBox="0 0 1080 1080" xml:space="preserve">
<desc>Created with Fabric.js 5.2.4</desc>
<defs>
</defs>
<g transform="matrix(1 0 0 1 540 540)" id="0ac545d0-1d9a-4b7d-9c03-ff76b453df92"  >
<rect style="stroke: none; stroke-width: 1; stroke-dasharray: none; stroke-linecap: butt; stroke-dashoffset: 0; stroke-linejoin: miter; stroke-miterlimit: 4; fill: rgb(255,255,255); fill-rule: nonzero; opacity: 1; visibility: hidden;" vector-effect="non-scaling-stroke"  x="-540" y="-540" rx="0" ry="0" width="1080" height="1080" />
</g>
<g transform="matrix(1 0 0 1 540 540)" id="935c0ebe-1706-4717-985a-e2722c1c55f7"  >
</g>
<g transform="matrix(1 0 0 1 540 540)"  >
<g style="" vector-effect="non-scaling-stroke"   >
		<g transform="matrix(1 0 0 1 92.74 233.75)"  >
<path style="stroke: none; stroke-width: 1; stroke-dasharray: none; stroke-linecap: butt; stroke-dashoffset: 0; stroke-linejoin: miter; stroke-miterlimit: 4; fill: rgb(255,255,255); fill-rule: nonzero; opacity: 1;" vector-effect="non-scaling-stroke"  transform=" translate(-474.22, -630.99)" d="M 762.95 539.26 C 762.95 539.26 585.8000000000001 430.26 425.94000000000005 480.91999999999996 C 278.34000000000003 527.6899999999999 197.09000000000006 694.1999999999999 185.49000000000007 719.48 L 517.0600000000001 612.24 C 494.25000000000006 626.12 469.2800000000001 639.7 442.05000000000007 652.47 C 353.0900000000001 694.1600000000001 265.31000000000006 715.28 189.04000000000008 725.6500000000001 C 218.83000000000007 742.6700000000001 376.95000000000005 826.72 521.0500000000001 781.0500000000001 C 680.9100000000001 730.3900000000001 762.95 539.2600000000001 762.95 539.2600000000001 Z" stroke-linecap="round" />
</g>
		<g transform="matrix(1 0 0 1 -90.84 -26.05)"  >
<path style="stroke: none; stroke-width: 1; stroke-dasharray: none; stroke-linecap: butt; stroke-dashoffset: 0; stroke-linejoin: miter; stroke-miterlimit: 4; fill: rgb(255,255,255); fill-rule: nonzero; opacity: 1;" vector-effect="non-scaling-stroke"  transform=" translate(-290.64, -371.19)" d="M 24.76 742.39 C 40.59 740.67 76.74 735.93 123.15 724.98 C 152.70000000000002 666.4300000000001 250.69 496.31000000000006 414.33000000000004 444.45000000000005 C 453.53000000000003 432.03000000000003 493.56000000000006 427.41 532.58 427.87000000000006 C 617.69 232.31 565.36 0 565.36 0 C 565.36 0 249.72000000000003 23.97 98.00999999999999 229.22 C -42.06 418.71 6.58 696.46 14.87 737.96 L 327.6 309.6 C 311.90000000000003 347.09000000000003 293.27000000000004 386.12 271.11 426.18 C 198.76000000000002 557.03 109.46000000000001 661.47 24.76000000000002 742.39 Z" stroke-linecap="round" />
</g>
</g>
</g>
</svg>