<?xml version="1.0" encoding="UTF-8"?>
<svg id="Layer_2" data-name="Layer 2" xmlns="http://www.w3.org/2000/svg" viewBox="0 0 762.95 794.48">
  <defs>
    <style>
      .cls-1 {
        fill: #fff;
      }
    </style>
  </defs>
  <g id="Layer_1-2" data-name="Layer 1">
    <path class="cls-1" d="M762.95,539.26s-177.15-109-337.01-58.34c-147.6,46.77-228.85,213.28-240.45,238.56l331.57-107.24c-22.81,13.88-47.78,27.46-75.01,40.23-88.96,41.69-176.74,62.81-253.01,73.18,29.79,17.02,187.91,101.07,332.01,55.4,159.86-50.66,241.9-241.79,241.9-241.79Z"/>
    <path class="cls-1" d="M24.76,742.39c15.83-1.72,51.98-6.46,98.39-17.41,29.55-58.55,127.54-228.67,291.18-280.53,39.2-12.42,79.23-17.04,118.25-16.58C617.69,232.31,565.36,0,565.36,0c0,0-315.64,23.97-467.35,229.22C-42.06,418.71,6.58,696.46,14.87,737.96L327.6,309.6c-15.7,37.49-34.33,76.52-56.49,116.58-72.35,130.85-161.65,235.29-246.35,316.21Z"/>
  </g>
</svg>